<svg xmlns="http://www.w3.org/2000/svg" viewBox="0 0 100 100">
  <defs>
    <radialGradient id="obGlow" cx="50%" cy="40%" r="60%">
      <stop offset="0%" stop-color="#fff6d0"/>
      <stop offset="55%" stop-color="#ffd23f"/>
      <stop offset="100%" stop-color="#b8860f"/>
    </radialGradient>
    <linearGradient id="obStone" x1="0" y1="0" x2="1" y2="0">
      <stop offset="0%" stop-color="#4a3d5c"/>
      <stop offset="50%" stop-color="#3a2f4a"/>
      <stop offset="100%" stop-color="#291f38"/>
    </linearGradient>
  </defs>
  <ellipse cx="50" cy="94" rx="20" ry="5" fill="#000" opacity="0.35"/>
  <polygon points="38,95 62,95 58,80 42,80" fill="#241a30" stroke="#1a1024" stroke-width="2.5" stroke-linejoin="round"/>
  <polygon points="42,80 58,80 54,14 46,14" fill="url(#obStone)" stroke="#1a1024" stroke-width="3" stroke-linejoin="round"/>
  <polygon points="46,14 54,14 50,4" fill="#4a3d5c" stroke="#1a1024" stroke-width="2.5" stroke-linejoin="round"/>
  <polygon points="46,30 50,25 54,30 50,35" fill="#ffd23f" opacity="0.9"/>
  <polygon points="45,44 55,44 50,54" fill="#ffd23f" opacity="0.9"/>
  <rect x="46" y="60" width="8" height="4" fill="#ffd23f" opacity="0.9"/>
  <polygon points="44,70 50,66 56,70 50,74" fill="#ffd23f" opacity="0.9"/>
  <ellipse cx="50" cy="14" rx="20" ry="4" fill="none" stroke="#ffd23f" stroke-width="1.6" opacity="0.6"/>
  <ellipse cx="50" cy="8" rx="14" ry="3" fill="none" stroke="#ffd23f" stroke-width="1.4" opacity="0.5"/>
  <circle cx="50" cy="10" r="8" fill="url(#obGlow)" stroke="#b8860f" stroke-width="1.4"/>
  <circle cx="50" cy="10" r="14" fill="#ffd23f" opacity="0.18"/>
  <circle cx="32" cy="24" r="2" fill="#fff6d0" opacity="0.85"/>
  <circle cx="70" cy="34" r="1.6" fill="#fff6d0" opacity="0.75"/>
  <circle cx="66" cy="56" r="1.8" fill="#fff6d0" opacity="0.7"/>
  <circle cx="30" cy="60" r="1.5" fill="#fff6d0" opacity="0.65"/>
</svg>
